<svg width="138" height="43" viewBox="0 0 138 43" fill="none" xmlns="http://www.w3.org/2000/svg">
<mask id="mask0_2_68" style="mask-type:luminance" maskUnits="userSpaceOnUse" x="1" y="1" width="21" height="41">
<path d="M21.5 5.22898C21.5 2.98242 19.692 1.12022 17.526 1.56658C13.703 2.35494 10.158 4.27089 7.3579 7.11831C3.6071 10.9326 1.5 16.1059 1.5 21.5C1.5 26.8941 3.6071 32.0674 7.3579 35.8817C10.158 38.7291 13.703 40.6451 17.526 41.4334C19.692 41.8798 21.5 40.0175 21.5 37.771V21.5V5.22898Z" fill="white"/>
</mask>
<g mask="url(#mask0_2_68)">
<path d="M21.5 5.22898C21.5 2.98242 19.692 1.12022 17.526 1.56658C13.703 2.35494 10.158 4.27089 7.3579 7.11831C3.6071 10.9326 1.5 16.1059 1.5 21.5C1.5 26.8941 3.6071 32.0674 7.3579 35.8817C10.158 38.7291 13.703 40.6451 17.526 41.4334C19.692 41.8798 21.5 40.0175 21.5 37.771V21.5V5.22898Z" fill="#4B4438" stroke="#4B4438" stroke-width="4"/>
</g>
<path d="M27 33.05V9.95C27 5.69741 30.5458 2.25 34.9198 2.25H61.0322C64.6858 2.25 66.3902 6.65089 63.644 8.99384L52.377 18.6061C50.5796 20.1396 50.5796 22.8604 52.377 24.3939L63.644 34.0061C66.3902 36.3492 64.6858 40.75 61.0322 40.75H34.9198C30.5458 40.75 27 37.3026 27 33.05Z" fill="#67C571" stroke="#67C571" stroke-width="2"/>
<path d="M102.5 40.69H78.5C74.0817 40.69 70.5 37.1088 70.5 32.691V6.31746C70.5 2.62733 75.0723 0.905857 77.5066 3.6796L87.4934 15.0592C89.0866 16.8746 91.9134 16.8746 93.5066 15.0592L103.493 3.6796C105.928 0.905857 110.5 2.62733 110.5 6.31746V32.691C110.5 37.1088 106.918 40.69 102.5 40.69Z" fill="#EC7C4C" stroke="#EC7C4C" stroke-width="2"/>
<mask id="mask1_2_68" style="mask-type:luminance" maskUnits="userSpaceOnUse" x="116" y="1" width="20" height="41">
<path d="M116 5.22898C116 2.98242 117.808 1.12022 119.974 1.56658C123.797 2.35494 127.342 4.27089 130.142 7.11831C133.893 10.9326 136 16.1059 136 21.5C136 26.8941 133.893 32.0674 130.142 35.8817C127.342 38.7291 123.797 40.6451 119.974 41.4334C117.808 41.8798 116 40.0175 116 37.771V21.5V5.22898Z" fill="white"/>
</mask>
<g mask="url(#mask1_2_68)">
<path d="M116 5.22898C116 2.98242 117.808 1.12022 119.974 1.56658C123.797 2.35494 127.342 4.27089 130.142 7.11831C133.893 10.9326 136 16.1059 136 21.5C136 26.8941 133.893 32.0674 130.142 35.8817C127.342 38.7291 123.797 40.6451 119.974 41.4334C117.808 41.8798 116 40.0175 116 37.771V21.5V5.22898Z" fill="#F4C725" stroke="#F4C725" stroke-width="4"/>
</g>
</svg>
